<?xml version="1.0" standalone="no"?><!DOCTYPE svg PUBLIC "-//W3C//DTD SVG 1.1//EN" "http://www.w3.org/Graphics/SVG/1.1/DTD/svg11.dtd"><svg t="1601190762755" class="icon" viewBox="0 0 1024 1024" version="1.1" xmlns="http://www.w3.org/2000/svg" p-id="62344" xmlns:xlink="http://www.w3.org/1999/xlink" width="36" height="36"><defs><style type="text/css"></style></defs><path d="M0 0h1024v1024H0z" fill="#FFFFFF" p-id="62345" data-spm-anchor-id="a313x.7781069.0.i85" class=""></path><path d="M300.8768 563.0592l36.736-58.7008 417.536 261.2992-36.7488 58.7008z" fill="#5D637A" p-id="62346" data-spm-anchor-id="a313x.7781069.0.i83" class=""></path><path d="M736.768 229.12m-143.616 0a143.616 143.616 0 1 0 287.232 0 143.616 143.616 0 1 0-287.232 0Z" fill="#0082FD" p-id="62347" data-spm-anchor-id="a313x.7781069.0.i82" class=""></path><path d="M319.232 533.76m-175.744 0a175.744 175.744 0 1 0 351.488 0 175.744 175.744 0 1 0-351.488 0Z" fill="#ACB2C6" p-id="62348" data-spm-anchor-id="a313x.7781069.0.i80" class=""></path><path d="M528 358.016m-74.368 0a74.368 74.368 0 1 0 148.736 0 74.368 74.368 0 1 0-148.736 0Z" fill="#ACB2C6" p-id="62349" data-spm-anchor-id="a313x.7781069.0.i81" class=""></path><path d="M736.768 795.136m-143.36 0a143.36 143.36 0 1 0 286.72 0 143.36 143.36 0 1 0-286.72 0Z" fill="#5D637A" p-id="62350" data-spm-anchor-id="a313x.7781069.0.i84" class=""></path></svg>